<svg xmlns="http://www.w3.org/2000/svg" width="1200" height="630" viewBox="0 0 1200 630">
  <defs>
    <linearGradient id="bg" x1="0" y1="0" x2="1" y2="1">
      <stop offset="0" stop-color="#14110D"/>
      <stop offset="1" stop-color="#2A1C10"/>
    </linearGradient>
    <linearGradient id="gold" x1="0" y1="0" x2="1" y2="0">
      <stop offset="0" stop-color="#F6D27A"/>
      <stop offset="1" stop-color="#E3A94E"/>
    </linearGradient>
  </defs>
  <rect width="1200" height="630" fill="url(#bg)"/>
  <!-- tabuleiro estilizado -->
  <g transform="translate(70,150) rotate(-8)" opacity="0.9">
    <rect x="0" y="0" width="340" height="340" rx="16" fill="#3A2418"/>
    <g>
      <rect x="20" y="20" width="75" height="75" fill="#E8D5B0"/>
      <rect x="170" y="20" width="75" height="75" fill="#E8D5B0"/>
      <rect x="95" y="95" width="75" height="75" fill="#E8D5B0"/>
      <rect x="245" y="95" width="75" height="75" fill="#E8D5B0"/>
      <rect x="20" y="170" width="75" height="75" fill="#E8D5B0"/>
      <rect x="170" y="170" width="75" height="75" fill="#E8D5B0"/>
      <rect x="95" y="245" width="75" height="75" fill="#E8D5B0"/>
      <rect x="245" y="245" width="75" height="75" fill="#E8D5B0"/>
    </g>
    <circle cx="132" cy="132" r="28" fill="#F5EFE0" stroke="#15120C" stroke-width="3"/>
    <circle cx="282" cy="282" r="28" fill="#23201C" stroke="#000" stroke-width="3"/>
    <circle cx="207" cy="207" r="28" fill="#E3554B" stroke="#15120C" stroke-width="3"/>
  </g>
  <!-- texto -->
  <text x="470" y="250" font-family="Sora, Arial, sans-serif" font-size="92" font-weight="800" fill="#EDE9E0">DAMAS</text>
  <text x="470" y="345" font-family="Sora, Arial, sans-serif" font-size="92" font-weight="800" fill="url(#gold)">ROYALE</text>
  <text x="474" y="405" font-family="Sora, Arial, sans-serif" font-size="26" font-weight="700" letter-spacing="3" fill="rgba(237,233,224,.7)">DAMAS BRASILEIRAS 3D ONLINE</text>
  <text x="474" y="470" font-family="monospace" font-size="22" fill="#E3A94E">ELO · LIGAS · REPLAYS · ESPECTADOR</text>
</svg>
